<?xml version="1.0" standalone="no"?>
<!DOCTYPE svg PUBLIC "-//W3C//DTD SVG 20010904//EN"
 "http://www.w3.org/TR/2001/REC-SVG-20010904/DTD/svg10.dtd">
<svg version="1.0" xmlns="http://www.w3.org/2000/svg"
 width="1258.000000pt" height="1280.000000pt" viewBox="0 0 1258.000000 1280.000000"
 preserveAspectRatio="xMidYMid meet">
<metadata>
Created by potrace 1.15, written by Peter Selinger 2001-2017
</metadata>
<g transform="translate(0.000000,1280.000000) scale(0.100000,-0.100000)"
fill="#ffc107" stroke="none">
<path d="M2817 12614 c53 -103 123 -250 158 -328 151 -342 340 -786 410 -966
178 -455 356 -744 580 -939 234 -205 624 -343 1130 -402 127 -15 574 -18 751
-5 l122 8 22 -98 c52 -235 105 -404 187 -592 4 -9 -4 -11 -33 -8 -22 3 -82 8
-134 11 -204 13 -458 71 -970 224 -699 207 -989 281 -1320 335 -753 123 -1616
92 -2207 -78 -423 -122 -733 -295 -979 -547 -180 -186 -308 -399 -393 -656
-225 -684 -179 -1695 144 -3118 167 -738 402 -1483 700 -2220 320 -792 707
-1503 1051 -1931 427 -531 902 -864 1514 -1062 207 -67 279 -80 680 -123 183
-20 717 -18 869 4 289 41 503 108 790 249 249 121 289 133 431 123 200 -13
279 -34 725 -192 154 -55 303 -107 330 -116 131 -41 482 -129 586 -146 521
-89 1070 -23 1528 184 414 186 748 498 1096 1020 251 377 434 743 734 1465
668 1604 1133 3237 1243 4355 19 198 16 679 -5 845 -72 557 -236 959 -546
1338 -468 572 -1345 1048 -2194 1192 -471 79 -859 63 -1187 -48 -282 -96 -502
-212 -1005 -527 -381 -239 -457 -283 -638 -370 -143 -69 -317 -135 -398 -150
l-36 -7 -7 74 c-3 40 -13 141 -22 223 -8 83 -18 299 -21 482 -6 351 2 502 37
688 10 55 24 136 30 180 26 172 97 356 187 483 100 141 296 300 483 392 105
52 292 114 415 136 165 31 526 21 810 -22 80 -12 581 -107 684 -130 23 -5 23
-5 17 68 -13 141 -76 510 -102 600 -7 24 -8 24 -319 52 -528 49 -826 56 -1137
26 -536 -51 -1064 -250 -1333 -502 -92 -86 -183 -202 -218 -278 -17 -36 -31
-66 -32 -68 -8 -10 -98 65 -109 91 -19 47 -158 190 -261 270 -465 359 -1177
539 -2665 672 -96 8 -196 18 -221 21 l-47 6 95 -188z"/>
</g>
</svg>
